<?xml version="1.0" encoding="UTF-8"?>
<!DOCTYPE svg PUBLIC "-//W3C//DTD SVG 1.1//EN" "http://www.w3.org/Graphics/SVG/1.1/DTD/svg11.dtd">
<!-- Creator: CorelDRAW 2019 (64 Bit) -->
<svg xmlns="http://www.w3.org/2000/svg" xml:space="preserve" width="21.1666mm" height="16.1394mm" version="1.1" style="shape-rendering:geometricPrecision; text-rendering:geometricPrecision; image-rendering:optimizeQuality; fill-rule:evenodd; clip-rule:evenodd"
viewBox="0 0 2116.66 1613.94"
 xmlns:xlink="http://www.w3.org/1999/xlink">
 <defs>
  <style type="text/css">
   <![CDATA[
    .str0 {stroke:#373435;stroke-width:17.63;stroke-miterlimit:22.9256}
    .str1 {stroke:#373435;stroke-width:45.86;stroke-miterlimit:22.9256}
    .fil2 {fill:none}
    .fil0 {fill:#FEFEFE}
    .fil1 {fill:#373435}
    .fil3 {fill:#373435;fill-rule:nonzero}
    .fil4 {fill:#373435;fill-rule:nonzero}
   ]]>
  </style>
 </defs>
 <g id="Camada_x0020_1">
  <metadata id="CorelCorpID_0Corel-Layer"/>
  <g id="_2913930343248">
   <path class="fil0" d="M1058.33 6.97c579.9,0 1050,358.17 1050,800 0,441.83 -470.1,800 -1050,800 -579.9,0 -1050,-358.17 -1050,-800 0,-441.83 470.1,-800 1050,-800z"/>
   <g>
    <path class="fil1" d="M901.49 825.21l159.31 42.69 -193.76 56.18c-33.07,-15.54 -53.48,-26.15 -54.3,-26.6l-14.71 -1.49c0.85,0.47 23.58,12.82 60.01,30.7l-14.19 4.12c-40.16,-20.61 -64.73,-34.96 -64.73,-34.96 14.28,-53.29 69.07,-84.92 122.37,-70.64zm367.58 98.5l16.89 4.53 47.21 148.11c-78.95,5.05 -172.22,-16.56 -259.48,-46.41 5.02,-1.96 10.19,-4.04 15.47,-6.22 79.65,26.99 161.97,46.72 227.41,43.91l1.75 -12.39c-62.68,2.7 -139.93,-14.03 -215.02,-37.49 59.52,-25.64 129.34,-62.28 165.77,-94.04zm38.65 17.26l36.36 111c0,0 113,-20.98 284.17,105.5 34.13,9.15 69.2,-11.1 78.35,-45.24 9.16,-34.15 -11.1,-69.22 -45.24,-78.37l-353.64 -92.89z"/>
    <path class="fil1" d="M450.48 1095.89c21.29,-7.49 21.39,13.51 12.58,17.77 -12.64,6.11 -20.5,-5.33 -12.58,-17.77zm389.9 -24.6c15.49,-11.71 109.16,-33.62 136.19,-42.3 43.57,-14 86.78,-28.26 128.88,-45.34 85.97,-34.88 139.68,-62.27 197.67,-127.2 -7.18,24.78 -51.39,60.26 -80.66,79.6 -33.01,21.81 -72.71,41.78 -111.59,59 -56.16,24.85 -213.55,82.49 -270.01,92.55l-0.48 -16.31zm-432.53 13.94c8.29,30.75 26.02,102.22 66.08,78.15 29.24,-17.57 48.86,-35.08 84.92,-49.15 52.01,-20.31 179.46,-32.64 204.5,-74.07 2.66,-1.95 4.98,-3.45 7.14,-4.56 -3.57,-42.2 -9.42,-52.84 -18.6,-71.85l-5.35 1.49 -188.32 48.64c-38.37,10.51 -137.07,32.31 -150.37,71.35zm381.83 -51.05c22.91,7.05 35.35,35.31 43.32,65.36 115.46,-33.03 333.66,-101.63 424.49,-180.8 17.15,-14.95 34.05,-30.91 43.1,-46.26 7.74,-13.12 21.78,-45.32 18.91,-62.7 -45.59,9.23 -97.72,25.91 -143.41,38.23l-355.76 96.02c-10.12,2.73 -19.64,6.11 -28.34,8.53l-21.19 5.91c12.17,27.16 15.8,43.1 18.88,75.71z"/>
   </g>
   <path class="fil2 str0" d="M1058.33 56.97c552.29,0 1000,335.79 1000,750 0,414.21 -447.71,750 -1000,750 -552.29,0 -1000,-335.79 -1000,-750 0,-414.21 447.71,-750 1000,-750z"/>
   <path class="fil2 str1" d="M1058.33 109.3c520.18,0 941.86,312.36 941.86,697.67 0,385.31 -421.68,697.67 -941.86,697.67 -520.18,0 -941.86,-312.36 -941.86,-697.67 0,-385.31 421.68,-697.67 941.86,-697.67z"/>
   <path class="fil3" d="M803.69 631.44c0,30.21 -11.15,55.44 -33.42,75.59 -22.28,20.03 -49.51,30.1 -81.67,30.1l-273.58 0 0 -210.52 82.69 0 0 132.55 191.47 0c21.25,0 31.81,-9.31 31.81,-27.83l0 -122.37c0,-18.52 -10.56,-27.83 -31.81,-27.83l-274.16 0 0 -77.97 273.58 0c32.16,0 59.39,10.07 81.67,30.1 22.27,20.15 33.42,45.38 33.42,75.59l0 122.59zm469.3 105.69l-82.7 0 0 -105.91 -217.76 0 0 -77.97 217.76 0 0 -46.78c0,-16.89 -5.97,-25.34 -17.91,-25.34l-234.31 0c-11.49,0 -17.23,8.45 -17.23,25.23l0 230.77 -82.69 0 0 -230.88c0,-28.05 9.3,-52.3 27.9,-72.66 18.62,-20.25 42.62,-30.43 72.02,-30.43l234.31 0c29.85,0 54.09,10.18 72.7,30.43 18.61,20.36 27.91,44.61 27.91,72.66l0 230.88zm428.64 0l-107.5 0 -95.11 -107.21 -95.1 107.21 -107.5 0 148.85 -169.26 -144.72 -164.71 107.51 0 90.96 103.96 90.97 -103.96 107.51 0 -144.72 164.71 148.85 169.26z"/>
   <path class="fil4" d="M554.33 1313.95l-6.14 6.91c-10.55,1.25 -21.79,-1.26 -33.72,-7.53 -16.61,-8.74 -26.34,-20.68 -29.19,-35.86 -2.15,-11.51 -0.17,-23.09 5.95,-34.72 5.4,-10.27 12.56,-18.13 21.52,-23.59 8.47,-5.15 17.77,-7.23 27.92,-6.26 8.97,0.86 17.83,3.62 26.56,8.21 10.98,5.77 19.43,12.53 25.37,20.25 -3.65,3.17 -6.31,6.13 -8.03,8.86l-1.18 -0.27c-3.24,-10.83 -9.92,-18.88 -20.05,-24.21 -6.6,-3.48 -13.42,-5.03 -20.47,-4.66 -15.56,0.77 -28.13,10.21 -37.68,28.35 -6.53,12.42 -8.62,23.86 -6.31,34.28 2.51,11.15 9.44,19.69 20.8,25.67 10.07,5.3 21.44,6.54 34.11,3.71l0.54 0.86zm92.76 -20.82c-4.42,7.76 -9.68,19.07 -15.8,33.96 -6.06,14.71 -10.02,25.08 -11.94,31.15 -1.16,-0.86 -2.36,-1.54 -3.57,-2.04 -1.96,-0.81 -4.44,-1.64 -7.4,-2.48 0.78,-1.5 1.64,-3.31 2.57,-5.45 1.15,-2.66 1.97,-4.46 2.44,-5.39l-0.35 -0.48c-4.06,3.2 -8.46,5.14 -13.26,5.85 -4.81,0.67 -9.57,0.05 -14.26,-1.88 -3.77,-1.55 -6.95,-3.73 -9.54,-6.52 -2.61,-2.83 -4.39,-5.94 -5.33,-9.36 -1.25,-4.86 -0.57,-10.51 2.1,-17.01 1.01,-2.46 2.59,-6.02 4.69,-10.65 1.76,-3.98 4.68,-10.92 8.78,-20.88 2.25,-5.45 3.68,-9.48 4.29,-12.1 1.72,1.15 3.49,2.09 5.31,2.84 1.97,0.81 4.24,1.53 6.82,2.16 -1.24,2.22 -3.58,7.11 -7.04,14.67 -3.49,7.6 -6.4,14.29 -8.82,20.16 -2.21,5.37 -3.6,9.62 -4.18,12.69 -0.77,4.06 -0.16,7.78 1.76,11.13 1.83,3.33 4.79,5.83 8.86,7.51 5.79,2.38 11.29,2.05 16.45,-1 3.55,-2.11 6.9,-6.64 10.07,-13.56 0.35,-0.72 2.45,-5.7 6.32,-14.96 5.06,-12.57 7.92,-20.38 8.64,-23.45 1.93,1.23 3.82,2.22 5.67,2.98 1.82,0.75 4.04,1.45 6.72,2.11zm26.2 -6.75l13.7 -0.22c-0.17,0.99 -0.28,1.6 -0.34,1.76 -0.43,1.16 -1.62,3.69 -3.57,7.55 -0.63,1.29 -2.08,4.74 -4.29,10.34l15.52 5.26c-0.84,1.18 -1.38,2.08 -1.61,2.73 -0.25,0.68 -0.4,1.65 -0.45,2.9l-1.68 -0.61 -5.7 -2.09 -6.6 -2.41 -1.26 -0.46c-0.98,2.18 -3.96,9.97 -8.99,23.36l-4.56 12.47c-1.65,4.54 -2.72,7.83 -3.2,9.89 -0.49,2.06 -0.64,4.05 -0.45,5.95 0.35,4.25 2.77,7.17 7.23,8.8 1.88,0.69 4.1,1.07 6.7,1.18l-1.16 3.19c-5.38,-0.08 -9.72,-0.73 -12.97,-1.92 -5.07,-1.85 -8.47,-4.84 -10.25,-9.01 -1.77,-4.17 -1.66,-8.96 0.31,-14.35 0.64,-1.76 1.81,-4.66 3.53,-8.71 3.56,-8.34 7.26,-17.76 11.09,-28.23 0.88,-2.42 1.57,-4.59 2.09,-6.5 -4.68,-1.71 -7.79,-2.74 -9.3,-3.08 0.66,-0.85 1.16,-1.7 1.46,-2.53 0.31,-0.83 0.49,-1.85 0.56,-3.02l9.41 3.43c0.39,-0.69 0.62,-1.09 0.65,-1.18 1.13,-3.07 2.5,-7.89 4.13,-14.49zm67.5 96.58l-3.11 6.92c-5.37,1.92 -9.99,3.03 -13.79,3.26 -3.83,0.22 -8.09,-0.31 -12.82,-1.59 -12.23,-3.31 -20.37,-9.66 -24.37,-19.04 -3.17,-7.36 -3.45,-15.9 -0.81,-25.62 1.81,-6.67 4.88,-12.6 9.18,-17.77 8.18,-9.75 19.52,-12.68 34.04,-8.75 11.96,3.24 19.13,9.64 21.5,19.16 1.51,5.93 1.34,12.36 -0.54,19.31 -0.22,0.81 -0.67,2.2 -1.34,4.18 -4.35,-1.55 -12.26,-3.87 -23.75,-6.99 -6.95,-1.88 -15.71,-4.08 -26.3,-6.57 -0.51,1.59 -0.85,2.65 -0.98,3.11 -2.31,8.54 -1.72,15.96 1.73,22.29 3.11,5.79 8.22,9.63 15.28,11.54 8.96,2.43 17.38,1.08 25.32,-4.02l0.76 0.58zm-1.85 -29.12c1.21,-6.07 1.66,-10.71 1.3,-13.93 -0.94,-8.03 -5.21,-13.06 -12.77,-15.11 -8.06,-2.18 -14.99,0.29 -20.74,7.42 -2.82,3.44 -4.95,7.26 -6.4,11.45 2.06,0.69 8.47,2.55 19.29,5.57 10.88,2.84 17.32,4.38 19.32,4.6zm53.93 -59.49c-1.1,3.45 -3.12,11.05 -6.02,22.84 -2.95,11.75 -5.34,21.73 -7.2,29.92 -6.44,28.3 -10.24,47.01 -11.4,56.13 -2.96,-1.03 -5.29,-1.75 -6.96,-2.13 -1.75,-0.4 -3.89,-0.7 -6.41,-0.91 3.8,-12.83 8.32,-30.77 13.59,-53.9l2.05 -9.02c5.71,-25.1 8.88,-40.38 9.48,-45.86 1.82,0.77 3.85,1.42 6.1,1.93 2.42,0.55 4.67,0.88 6.77,1zm8.2 61.06l1.59 -8.32 1.14 -0.48c5.47,-2.05 9.85,-3.29 13.14,-3.72 3.3,-0.43 7.03,-0.26 11.2,0.53 8,1.52 13.75,5.09 17.25,10.68 2.73,4.41 3.44,10.02 2.13,16.84 -0.5,2.64 -1.33,6.35 -2.49,11.14 -1.11,4.42 -2.07,8.82 -2.9,13.19 -1.63,8.54 -2.33,13.69 -2.11,15.42 0.38,2.44 1.9,3.92 4.5,4.41 0.73,0.14 1.74,0.21 3.06,0.18l-0.55 2.9c-4.07,0.8 -7.49,0.92 -10.25,0.4 -5.96,-1.14 -8.72,-4.73 -8.33,-10.81 -7.84,5.89 -16,8.02 -24.41,6.42 -6.66,-1.27 -11.42,-4 -14.27,-8.22 -2.68,-3.89 -3.51,-8.47 -2.5,-13.76 1.36,-7.13 5.25,-11.97 11.64,-14.51 3.49,-1.42 8.71,-1.95 15.67,-1.63 5.91,0.23 10.22,0.2 12.91,-0.05 2.7,-0.29 5.17,-0.9 7.37,-1.9 0.57,-1.79 0.96,-3.32 1.2,-4.54 0.87,-4.58 0.53,-8.64 -0.99,-12.14 -2.1,-4.76 -6.23,-7.71 -12.36,-8.87 -3.9,-0.75 -7.65,-0.48 -11.24,0.79 -3.59,1.27 -6.56,3.38 -8.93,6.33l-1.47 -0.28zm33.07 24.9c-5.35,0.1 -11.07,0.29 -17.26,0.58 -5.39,0.28 -9.25,1.17 -11.55,2.71 -2.95,1.86 -4.87,5.04 -5.73,9.57 -0.79,4.15 -0.03,7.69 2.32,10.65 2.16,2.73 4.92,4.42 8.35,5.07 3.35,0.64 6.76,0.31 10.27,-0.95 3.49,-1.27 6.49,-3.27 9.03,-6.06 1.08,-5.66 2.02,-10.21 2.85,-13.61 0.85,-3.69 1.35,-5.89 1.48,-6.57 0.02,-0.25 0.11,-0.72 0.24,-1.39zm46.13 -11.89c0.67,-0.59 2.89,-2.88 6.61,-6.83 1.95,-2.11 4.37,-3.7 7.26,-4.74 2.91,-1.06 5.69,-1.39 8.39,-1 1.5,0.22 2.93,0.78 4.23,1.69 -1.21,3.02 -2.01,5.89 -2.41,8.64 -0.08,0.53 -0.16,1.43 -0.21,2.73l-1.13 0.49c-2.03,-2.02 -4.28,-3.22 -6.73,-3.57 -3.28,-0.48 -6.36,0.16 -9.29,1.91 -2.92,1.74 -5.16,4.31 -6.7,7.66 -1.17,2.64 -2.82,11.18 -4.93,25.67 -1.34,9.21 -2.25,16.87 -2.76,23 -1.85,-0.62 -3.53,-1.05 -5.05,-1.27 -1.56,-0.23 -3.89,-0.38 -6.97,-0.48 0.14,-0.95 1.21,-6.83 3.16,-17.68 0.68,-3.73 1.51,-8.87 2.46,-15.42 1.44,-9.89 2.97,-22.19 4.58,-36.92 1.37,0.6 3.5,1.11 6.38,1.53 2.09,0.31 3.97,0.38 5.63,0.22 -0.66,3.55 -1.19,6.06 -1.48,7.57 -0.42,1.93 -0.7,3.38 -0.84,4.38 -0.06,0.37 -0.12,1.18 -0.2,2.42zm51.7 -9.17c-1.83,7.94 -4.19,25.05 -7.12,51.3 -0.88,7.92 -1.43,14.22 -1.67,18.92 -2.68,-0.65 -4.99,-1.09 -6.96,-1.31 -1.86,-0.21 -3.97,-0.26 -6.31,-0.17 1.04,-3.63 2.8,-15.25 5.29,-34.9 2,-19.26 2.98,-31.05 2.93,-35.38 2.36,0.66 4.46,1.1 6.26,1.3 1.58,0.18 4.09,0.26 7.58,0.24zm-3.3 -33.34c2.09,0.23 3.78,1.17 5.08,2.81 1.3,1.62 1.82,3.51 1.59,5.59 -0.23,2.07 -1.18,3.76 -2.83,5.06 -1.64,1.32 -3.51,1.84 -5.57,1.61 -2.14,-0.24 -3.87,-1.16 -5.18,-2.81 -1.32,-1.63 -1.87,-3.52 -1.64,-5.63 0.24,-2.08 1.19,-3.79 2.85,-5.07 1.67,-1.26 3.59,-1.79 5.7,-1.56zm23.55 51.29l0.58 -8.45 1.08 -0.6c5.18,-2.7 9.38,-4.45 12.6,-5.27 3.23,-0.82 6.94,-1.1 11.18,-0.81 8.12,0.56 14.26,3.42 18.4,8.54 3.24,4.05 4.61,9.54 4.13,16.47 -0.18,2.68 -0.56,6.46 -1.15,11.36 -0.57,4.52 -1,9 -1.3,13.44 -0.6,8.67 -0.68,13.87 -0.26,15.56 0.67,2.38 2.36,3.66 5,3.84 0.74,0.05 1.76,0 3.06,-0.19l-0.2 2.96c-3.95,1.27 -7.32,1.8 -10.12,1.61 -6.06,-0.42 -9.23,-3.65 -9.57,-9.73 -7.08,6.78 -14.92,9.87 -23.47,9.28 -6.77,-0.46 -11.81,-2.61 -15.14,-6.46 -3.13,-3.54 -4.5,-7.99 -4.13,-13.36 0.5,-7.24 3.78,-12.51 9.83,-15.8 3.29,-1.83 8.41,-2.97 15.36,-3.48 5.89,-0.48 10.16,-1.03 12.81,-1.6 2.65,-0.61 5.03,-1.51 7.09,-2.76 0.35,-1.85 0.56,-3.41 0.65,-4.65 0.32,-4.66 -0.5,-8.64 -2.43,-11.94 -2.66,-4.48 -7.11,-6.91 -13.33,-7.33 -3.96,-0.27 -7.66,0.43 -11.07,2.12 -3.42,1.69 -6.11,4.15 -8.11,7.36l-1.49 -0.11zm35.8 20.78c-5.29,0.73 -10.96,1.61 -17.06,2.63 -5.33,0.93 -9.05,2.27 -11.15,4.08 -2.7,2.2 -4.23,5.58 -4.54,10.18 -0.29,4.21 0.88,7.64 3.57,10.3 2.47,2.45 5.41,3.8 8.89,4.04 3.4,0.23 6.75,-0.5 10.09,-2.18 3.31,-1.67 6.06,-4.02 8.24,-7.09 0.39,-5.74 0.78,-10.38 1.2,-13.85 0.41,-3.77 0.64,-6.01 0.69,-6.7 -0.01,-0.25 0.02,-0.73 0.07,-1.41zm104.07 -67.81l3.04 -0.13c1.59,3.24 4.35,9.11 8.36,17.64 4.14,8.96 9.47,20.1 15.94,33.45l8.18 17.06c9.94,20.2 15.36,31.14 16.22,32.77l0.03 0.68c-1.94,-0.26 -4.34,-0.33 -7.2,-0.21 -3.06,0.14 -5.58,0.43 -7.53,0.87 -0.34,-0.84 -1.39,-3.28 -3.14,-7.35 -2.21,-5.39 -6.48,-14.94 -12.76,-28.63l-1.49 -3.27c-1.54,0.19 -2.47,0.28 -2.8,0.29 -0.61,0.03 -3.06,0.07 -7.33,0.13 -0.96,-0.04 -2.81,0.03 -5.56,0.15 -7.02,0.31 -11.4,0.53 -13.18,0.69 -5.27,0.34 -8.42,0.56 -9.46,0.6 -4.66,12.91 -8.97,26.39 -12.95,40.46 -1.88,-0.27 -3.59,-0.37 -5.13,-0.3 -1.51,0.07 -3.25,0.33 -5.15,0.76l-0.04 -0.99c2.88,-6.29 9.56,-22.74 20.03,-49.35l8.12 -20.54c1.53,-3.71 3.03,-7.47 4.56,-11.23 1.03,-2.33 2.01,-4.82 2.94,-7.47 3.44,-8.96 5.55,-14.32 6.3,-16.08zm-1.27 19.7l-14.87 38.62 1.04 -0.04c8.1,-0.09 12.75,-0.16 13.91,-0.21 9.42,-0.43 15.42,-0.87 17.95,-1.37l-18.03 -37zm73.8 23.69c0.52,-0.73 2.16,-3.46 4.89,-8.16 1.41,-2.5 3.41,-4.6 5.99,-6.26 2.59,-1.7 5.22,-2.65 7.94,-2.88 1.52,-0.13 3.03,0.09 4.51,0.68 -0.49,3.21 -0.62,6.19 -0.39,8.96 0.05,0.53 0.18,1.43 0.41,2.71l-0.98 0.73c-2.43,-1.51 -4.9,-2.16 -7.37,-1.95 -3.3,0.28 -6.15,1.61 -8.61,3.97 -2.44,2.37 -4.04,5.37 -4.78,8.99 -0.54,2.84 -0.2,11.53 1.04,26.12 0.78,9.27 1.63,16.94 2.53,23.02 -1.94,-0.18 -3.67,-0.22 -5.2,-0.09 -1.57,0.14 -3.87,0.51 -6.89,1.12 -0.08,-0.95 -0.38,-6.92 -0.94,-17.93 -0.2,-3.79 -0.56,-8.99 -1.12,-15.58 -0.84,-9.96 -2.15,-22.28 -3.93,-36.99 1.47,0.27 3.66,0.29 6.56,0.04 2.11,-0.18 3.95,-0.54 5.53,-1.07 0.16,3.61 0.22,6.17 0.28,7.71 0.04,1.98 0.09,3.45 0.18,4.45 0.03,0.38 0.15,1.19 0.35,2.41zm38.62 -34.83l12.07 -6.48c0.31,0.96 0.48,1.55 0.5,1.72 0.16,1.23 0.26,4.02 0.29,8.35 0.03,1.43 0.32,5.16 0.93,11.15l16.2 -2.43c-0.2,1.43 -0.27,2.48 -0.18,3.16 0.09,0.73 0.41,1.65 0.93,2.79l-1.77 0.22 -6.02 0.76 -6.98 0.88 -1.33 0.17c0.13,2.38 1.05,10.67 2.72,24.89l1.66 13.16c0.61,4.79 1.17,8.21 1.68,10.26 0.51,2.06 1.29,3.89 2.33,5.49 2.26,3.62 5.74,5.11 10.46,4.52 1.98,-0.25 4.13,-0.93 6.49,-2.02l0.43 3.36c-4.82,2.39 -8.97,3.81 -12.41,4.24 -5.34,0.68 -9.74,-0.42 -13.24,-3.32 -3.48,-2.89 -5.57,-7.19 -6.29,-12.89 -0.24,-1.85 -0.53,-4.97 -0.86,-9.36 -0.65,-9.04 -1.68,-19.11 -3.08,-30.18 -0.32,-2.55 -0.7,-4.8 -1.12,-6.73 -4.94,0.63 -8.17,1.14 -9.67,1.53 0.19,-1.07 0.25,-2.05 0.14,-2.92 -0.11,-0.88 -0.42,-1.87 -0.89,-2.95l9.94 -1.25c0.03,-0.8 0.05,-1.26 0.04,-1.36 -0.41,-3.24 -1.4,-8.16 -2.97,-14.76zm104.24 54.21l0.36 7.58c-3.92,4.14 -7.54,7.21 -10.83,9.14 -3.32,1.92 -7.36,3.38 -12.15,4.38 -12.41,2.57 -22.53,0.59 -30.35,-5.97 -6.15,-5.13 -10.26,-12.62 -12.3,-22.49 -1.41,-6.77 -1.34,-13.44 0.16,-20 2.88,-12.39 11.67,-20.13 26.41,-23.19 12.13,-2.51 21.41,-0.05 27.83,7.37 4.03,4.61 6.78,10.42 8.24,17.47 0.18,0.82 0.4,2.27 0.7,4.33 -4.58,0.58 -12.68,2.09 -24.34,4.51 -7.05,1.46 -15.86,3.46 -26.43,6.02 0.26,1.65 0.44,2.75 0.53,3.22 1.8,8.67 5.68,15.01 11.62,19.1 5.39,3.76 11.69,4.88 18.85,3.39 9.08,-1.88 15.99,-6.9 20.77,-15.04l0.93 0.18zm-14.81 -25.14c-1.66,-5.96 -3.36,-10.3 -5.13,-13.01 -4.48,-6.74 -10.56,-9.3 -18.23,-7.71 -8.17,1.7 -13.24,7.04 -15.14,16 -0.96,4.34 -1.14,8.71 -0.53,13.1 2.15,-0.31 8.7,-1.55 19.71,-3.75 11,-2.38 17.44,-3.92 19.32,-4.63zm54.99 -31.17l-1.3 0.33c-1.73,-1.99 -3,-3.29 -3.83,-3.88 -1.49,-1.11 -3.41,-1.85 -5.71,-2.26 -2.28,-0.39 -4.44,-0.34 -6.39,0.16 -3.42,0.86 -5.98,2.74 -7.73,5.66 -1.74,2.91 -2.19,6.08 -1.31,9.54 0.98,3.87 3.31,6.59 6.97,8.17 1.66,0.7 3.2,1.12 4.59,1.23 1.39,0.14 4.47,0.15 9.27,0.06 6.28,-0.06 11.1,0.97 14.43,3.07 3.72,2.37 6.2,5.97 7.42,10.8 1.75,6.91 0.41,13.24 -4.04,19.06 -3.96,5.18 -9.49,8.67 -16.65,10.48 -7.12,1.8 -13.73,1.78 -19.76,-0.08 0.41,-2.79 0.53,-6.55 0.35,-11.27l1.3 -0.33c6.02,5.66 12.52,7.62 19.5,5.85 4.27,-1.08 7.39,-3.3 9.41,-6.65 1.79,-3.1 2.28,-6.35 1.42,-9.75 -0.83,-3.29 -2.59,-5.66 -5.25,-7.13 -2.67,-1.46 -6.62,-2.23 -11.89,-2.25 -4.59,-0.01 -7.95,-0.19 -10.07,-0.48 -2.1,-0.3 -4.11,-0.94 -6.06,-1.93 -4.95,-2.46 -8.16,-6.57 -9.61,-12.3 -0.83,-3.29 -0.84,-6.63 -0.05,-9.99 0.82,-3.35 2.34,-6.32 4.6,-8.93 3.23,-3.71 7.96,-6.37 14.18,-7.94 6.47,-1.64 12.16,-1.75 17.06,-0.31 -0.63,2.58 -0.89,6.25 -0.85,11.07zm22.81 -2.94l-2.81 -7.99 0.75 -0.98c3.69,-4.52 6.85,-7.8 9.49,-9.83 2.63,-2.03 5.94,-3.75 9.95,-5.16 7.67,-2.71 14.44,-2.51 20.27,0.56 4.58,2.43 8.01,6.93 10.32,13.49 0.89,2.52 2.03,6.15 3.43,10.88 1.27,4.38 2.65,8.67 4.13,12.86 2.88,8.2 4.86,13.01 5.92,14.39 1.56,1.93 3.61,2.43 6.11,1.55 0.7,-0.24 1.61,-0.69 2.74,-1.38l0.98 2.79c-3.12,2.73 -6.01,4.55 -8.66,5.48 -5.73,2.02 -9.91,0.3 -12.64,-5.14 -3.81,9.03 -9.79,14.97 -17.87,17.81 -6.4,2.25 -11.88,2.28 -16.47,0.06 -4.27,-2.01 -7.29,-5.55 -9.08,-10.64 -2.4,-6.84 -1.48,-12.98 2.77,-18.39 2.3,-2.98 6.55,-6.06 12.73,-9.28 5.22,-2.77 8.93,-4.97 11.14,-6.54 2.19,-1.61 4.01,-3.38 5.41,-5.34 -0.4,-1.84 -0.83,-3.35 -1.24,-4.52 -1.55,-4.41 -3.88,-7.75 -6.96,-10.01 -4.21,-3.06 -9.26,-3.53 -15.14,-1.46 -3.75,1.32 -6.86,3.43 -9.33,6.34 -2.46,2.9 -3.97,6.22 -4.53,9.96l-1.41 0.49zm41.1 4.92c-4.57,2.76 -9.43,5.81 -14.63,9.16 -4.52,2.96 -7.41,5.66 -8.62,8.16 -1.61,3.09 -1.68,6.8 -0.14,11.15 1.4,3.98 3.84,6.66 7.35,8.04 3.24,1.28 6.48,1.35 9.77,0.19 3.22,-1.13 6,-3.13 8.4,-5.99 2.38,-2.85 3.97,-6.09 4.76,-9.77 -1.91,-5.44 -3.39,-9.85 -4.38,-13.2 -1.11,-3.62 -1.78,-5.77 -2.01,-6.42 -0.12,-0.23 -0.27,-0.68 -0.5,-1.32zm20.07 -42.43c2.3,-0.49 4.36,-1.09 6.14,-1.8 1.74,-0.7 3.35,-1.56 4.8,-2.57l0.48 1.42c2.11,5.96 3.46,9.69 4.06,11.2 0.73,-3.8 1.64,-6.89 2.73,-9.23 2.78,-5.96 7.56,-10.29 14.35,-13 7.2,-2.88 13.73,-3.04 19.55,-0.47 5.38,2.32 9.58,7.23 12.59,14.76 0.31,0.78 1.62,4.54 3.96,11.28 1.14,3.36 2.77,7.63 4.85,12.82 3,7.51 5.69,13.92 8.05,19.21 -2.29,0.54 -4.26,1.13 -5.93,1.8 -1.59,0.64 -3.59,1.63 -5.98,2.96 -2.84,-9.65 -7.2,-21.78 -13.07,-36.49 -2.59,-6.48 -5.04,-11.05 -7.39,-13.73 -2.19,-2.43 -4.98,-3.95 -8.34,-4.53 -3.35,-0.6 -6.81,-0.2 -10.4,1.23 -3.12,1.25 -5.7,3.04 -7.71,5.36 -2.04,2.32 -3.22,4.89 -3.59,7.71 -0.44,3.19 0,6.96 1.28,11.27 1.32,4.29 4.8,13.57 10.5,27.85 1.64,4.11 3.73,8.85 6.26,14.29 -2.1,0.47 -4.07,1.06 -5.9,1.79 -1.84,0.73 -3.79,1.71 -5.87,2.91 -2.62,-9.37 -7.94,-24.05 -15.91,-44 -3.69,-9.25 -6.88,-16.62 -9.51,-22.04zm78.32 -17.34l-3.91 -7.51 0.61 -1.09c3.02,-4.99 5.69,-8.68 8.01,-11.06 2.33,-2.37 5.36,-4.55 9.13,-6.5 7.23,-3.76 13.95,-4.51 20.16,-2.29 4.87,1.77 8.9,5.74 12.1,11.91 1.23,2.38 2.88,5.81 4.93,10.3 1.87,4.15 3.83,8.2 5.89,12.15 4,7.71 6.63,12.19 7.88,13.42 1.81,1.68 3.91,1.9 6.27,0.68 0.65,-0.35 1.49,-0.92 2.51,-1.76l1.36 2.63c-2.7,3.14 -5.31,5.35 -7.8,6.64 -5.39,2.8 -9.78,1.69 -13.23,-3.32 -2.52,9.47 -7.6,16.19 -15.21,20.14 -6.02,3.13 -11.44,3.92 -16.29,2.37 -4.51,-1.4 -8,-4.48 -10.48,-9.26 -3.34,-6.44 -3.29,-12.65 0.16,-18.6 1.86,-3.28 5.64,-6.92 11.31,-10.98 4.77,-3.47 8.14,-6.17 10.1,-8.03 1.95,-1.9 3.51,-3.9 4.61,-6.05 -0.65,-1.76 -1.29,-3.2 -1.86,-4.3 -2.15,-4.15 -4.93,-7.12 -8.29,-8.94 -4.6,-2.43 -9.66,-2.19 -15.2,0.69 -3.52,1.83 -6.31,4.36 -8.34,7.58 -2.04,3.22 -3.06,6.71 -3.09,10.49l-1.33 0.69zm41.38 -0.89c-4.14,3.37 -8.52,7.07 -13.2,11.12 -4.06,3.57 -6.54,6.65 -7.39,9.28 -1.17,3.29 -0.71,6.98 1.42,11.07 1.94,3.74 4.73,6.06 8.41,6.93 3.39,0.81 6.6,0.42 9.7,-1.18 3.02,-1.58 5.5,-3.94 7.47,-7.11 1.96,-3.16 3.08,-6.59 3.35,-10.35 -2.65,-5.11 -4.74,-9.27 -6.19,-12.45 -1.61,-3.43 -2.58,-5.46 -2.89,-6.08 -0.14,-0.2 -0.37,-0.63 -0.68,-1.23zm1.37 -86.85c1.55,3.28 5.25,10.22 11.15,20.83 5.85,10.6 10.9,19.54 15.11,26.8 14.57,25.11 24.53,41.39 29.89,48.86 -2.86,1.26 -5.05,2.32 -6.54,3.19 -1.55,0.89 -3.32,2.13 -5.31,3.69 -5.96,-11.98 -14.87,-28.2 -26.77,-48.71l-4.64 -8.01c-12.92,-22.26 -21.01,-35.6 -24.3,-40.03 1.85,-0.67 3.78,-1.58 5.77,-2.74 2.15,-1.24 4.02,-2.53 5.64,-3.88z"/>
  </g>
 </g>
</svg>
